<?xml version="1.0" encoding="UTF-8" standalone="no"?>
<svg
   xmlns:dc="http://purl.org/dc/elements/1.1/"
   xmlns:cc="http://creativecommons.org/ns#"
   xmlns:rdf="http://www.w3.org/1999/02/22-rdf-syntax-ns#"
   xmlns:svg="http://www.w3.org/2000/svg"
   xmlns="http://www.w3.org/2000/svg"
   viewBox="0 0 1066.6667 1066.6667"
   height="1066.6667"
   width="1066.6667"
   xml:space="preserve"
   id="svg2"
   version="1.1"><metadata
     id="metadata8"><rdf:RDF><cc:Work
         rdf:about=""><dc:format>image/svg+xml</dc:format><dc:type
           rdf:resource="http://purl.org/dc/dcmitype/StillImage" /></cc:Work></rdf:RDF></metadata><defs
     id="defs6"><clipPath
       id="clipPath18"
       clipPathUnits="userSpaceOnUse"><path
         id="path16"
         d="M 0,800 H 800 V 0 H 0 Z" /></clipPath><clipPath
       id="clipPath58"
       clipPathUnits="userSpaceOnUse"><path
         id="path56"
         d="m 307.203,395.795 h 39.285 v -21.412 h -39.285 z" /></clipPath><clipPath
       id="clipPath138"
       clipPathUnits="userSpaceOnUse"><path
         id="path136"
         d="m 453.512,395.71 h 39.285 v -21.412 h -39.285 z" /></clipPath><clipPath
       id="clipPath174"
       clipPathUnits="userSpaceOnUse"><path
         id="path172"
         d="M 363.686,304.5 H 388 v -8.926 h -24.314 z" /></clipPath><clipPath
       id="clipPath190"
       clipPathUnits="userSpaceOnUse"><path
         id="path188"
         d="m 412,304.415 h 24.314 v -8.926 H 412 Z" /></clipPath></defs><g
     transform="matrix(1.3333333,0,0,-1.3333333,0,1066.6667)"
     id="g10"><g
       id="g12"><g
         clip-path="url(#clipPath18)"
         id="g14"><g
           transform="translate(563.6608,414.4931)"
           id="g20"><path
             id="path22"
             style="fill:#1d2024;fill-opacity:1;fill-rule:nonzero;stroke:none"
             d="m 0,0 c 0,0 -27.181,18.574 -38.959,35.335 -11.779,16.762 -21.745,58.439 -28.087,70.519 -6.342,12.081 -19.933,13.742 -19.933,13.742 -9.513,-11.326 -6.191,-27.483 -6.191,-27.483 0,0 -21.871,1.651 -58.891,2.416 -4.738,0.098 -11.587,-1.206 -11.599,-1.208 v 0.085 c 0,0 -6.859,1.306 -11.6,1.208 -37.021,-0.765 -58.892,-2.416 -58.892,-2.416 0,0 3.322,16.157 -6.191,27.482 0,0 -13.59,-1.66 -19.933,-13.741 -6.342,-12.08 -16.308,-53.758 -28.086,-70.519 -11.779,-16.762 -38.96,-35.335 -38.96,-35.335 0,0 27.634,-10.872 33.976,-28.087 6.343,-17.214 -0.603,-26.577 0,-64.026 0.604,-37.449 30.805,-61.006 49.832,-90.905 19.026,-29.898 48.265,-67.951 79.853,-67.046 v -0.084 c 31.587,-0.907 60.827,37.147 79.853,67.046 19.027,29.898 49.228,53.455 49.832,90.904 0.604,37.449 -6.342,46.812 0,64.026 C -27.634,-10.872 0,0 0,0" /></g><g
           transform="translate(323.3178,534.1736)"
           id="g24"><path
             id="path26"
             style="fill:#0a0a08;fill-opacity:1;fill-rule:nonzero;stroke:none"
             d="m 0,0 c 0,0 -28.238,36.543 -53.003,59.496 -24.764,22.952 -62.515,45.15 -76.106,41.526 -13.59,-3.624 -6.795,-45.301 -4.983,-67.952 1.812,-22.651 6.191,-59.949 9.815,-72.029 3.624,-12.08 6.04,-16.913 6.04,-16.913 0,0 -0.604,-25.972 4.833,-38.355 5.436,-12.382 26.425,-25.369 26.425,-25.369 0,0 25.52,-8.758 51.493,12.987 C -9.513,-84.865 0,0 0,0" /></g><g
           transform="translate(313.0804,530.4484)"
           id="g28"><path
             id="path30"
             style="fill:#51352d;fill-opacity:1;fill-rule:nonzero;stroke:none"
             d="m 0,0 c 0,0 -86.254,80.133 -101.959,77.113 -15.704,-3.02 -3.624,-98.455 3.02,-115.971 6.644,-17.517 -3.186,-61.126 33.138,-68.918 C -29.477,-115.568 3.064,-20.2 0,0" /></g><g
           transform="translate(295.2023,498.3941)"
           id="g32"><path
             id="path34"
             style="fill:#402923;fill-opacity:1;fill-rule:nonzero;stroke:none"
             d="m 0,0 c -0.137,1.715 -10.391,22.189 -24.887,37.894 -14.497,15.704 -33.825,21.744 -39.261,21.744 -5.436,0 -8.004,-27.625 5.285,-61.006 13.288,-33.38 38.959,-47.113 38.959,-47.113 0,0 22.442,16.628 19.904,48.481" /></g><g
           transform="translate(305.9523,317.6331)"
           id="g36"><path
             id="path38"
             style="fill:#c18d59;fill-opacity:1;fill-rule:nonzero;stroke:none"
             d="m 0,0 c -17.517,3.02 -18.725,27.785 -19.933,39.865 -0.699,6.99 -7.663,8.917 -13.294,7.551 -0.75,-9.632 -2.746,-21.766 -2.41,-42.584 0.604,-37.449 30.805,-61.006 49.831,-90.905 19.027,-29.898 48.267,-67.952 79.854,-67.046 V 34.429 L 72.524,43.052 C 72.524,43.052 17.516,-3.02 0,0" /></g><g
           transform="translate(295.4025,274.7479)"
           id="g40"><path
             id="path42"
             style="fill:#1d2024;fill-opacity:1;fill-rule:nonzero;stroke:none"
             d="m 0,0 c -6.926,16.912 -0.323,21.141 -10.591,37.449 -10.267,16.307 -13.87,33.475 -13.871,33.478 -0.46,-6.378 -0.775,-13.926 -0.625,-23.21 0.477,-29.59 19.43,-50.508 36.751,-72.733 C 8.038,-17.885 3.504,-8.558 0,0" /></g><g
           transform="translate(346.4879,392.5314)"
           id="g44"><path
             id="path46"
             style="fill:#000000;fill-opacity:1;fill-rule:nonzero;stroke:none"
             d="M 0,0 C 0,0 -1.812,18.258 -21.141,20.303 -40.469,22.349 -46.509,3.646 -46.509,3.646 c 0,0 1.208,-15.939 12.08,-17.796 C -23.557,-16.006 0,0 0,0" /></g><g
           transform="translate(346.4879,392.5314)"
           id="g48"><path
             id="path50"
             style="fill:#1d2024;fill-opacity:1;fill-rule:nonzero;stroke:none"
             d="m 0,0 c 0,0 -6.342,12.986 -20.235,14.496 -13.892,1.51 -22.046,-12.08 -22.046,-12.08 0,0 1.51,-21.443 19.328,-20.537 C -5.134,-17.215 0,0 0,0" /></g><g
           id="g52"><g
             id="g54" /><g
             id="g66"><g
               style="opacity:0.35000604"
               id="g64"
               clip-path="url(#clipPath58)"><g
                 id="g62"
                 transform="translate(344.4397,395.7948)"><path
                   id="path60"
                   style="fill:#ffffff;fill-opacity:1;fill-rule:nonzero;stroke:none"
                   d="m 0,0 c -0.194,-0.629 -5.453,-17.173 -22.934,-18.062 -6.97,-0.354 -11.437,2.715 -14.302,6.579 2.608,-5.238 7.438,-10.353 16.332,-9.901 17.818,0.906 22.952,18.121 22.952,18.121 0,0 -0.677,1.37 -2.048,3.263" /></g></g></g></g><g
           transform="translate(312.0589,390.7639)"
           id="g68"><path
             id="path70"
             style="fill:#000000;fill-opacity:1;fill-rule:nonzero;stroke:none"
             d="m 0,0 c 0,-6.839 5.544,-12.382 12.382,-12.382 6.839,0 12.383,5.543 12.383,12.382 0,6.839 -5.544,12.382 -12.383,12.382 C 5.544,12.382 0,6.839 0,0" /></g><g
           transform="translate(330.8281,396.1778)"
           id="g72"><path
             id="path74"
             style="fill:#ffffff;fill-opacity:1;fill-rule:nonzero;stroke:none"
             d="m 0,0 c 0,-2.99 2.424,-5.414 5.414,-5.414 2.99,0 5.414,2.424 5.414,5.414 0,2.99 -2.424,5.414 -5.414,5.414 C 2.424,5.414 0,2.99 0,0" /></g><g
           transform="translate(359.7763,412.8347)"
           id="g76"><path
             id="path78"
             style="fill:#c18d59;fill-opacity:1;fill-rule:nonzero;stroke:none"
             d="m 0,0 c 0,0 -9.664,13.522 -34.429,23.186 0,0 16.308,26.577 34.429,20.537 C 18.121,37.682 18.97,7.648 0,0" /></g><g
           transform="translate(476.6822,534.0887)"
           id="g80"><path
             id="path82"
             style="fill:#0a0a08;fill-opacity:1;fill-rule:nonzero;stroke:none"
             d="m 0,0 c 0,0 28.238,36.543 53.003,59.496 24.764,22.952 62.515,45.15 76.106,41.526 13.59,-3.624 6.795,-45.301 4.983,-67.952 -1.812,-22.651 -6.191,-59.949 -9.815,-72.029 -3.624,-12.081 -6.04,-16.913 -6.04,-16.913 0,0 0.604,-25.972 -4.833,-38.355 -5.436,-12.382 -26.425,-25.369 -26.425,-25.369 0,0 -25.52,-8.758 -51.493,12.987 C 9.513,-84.865 0,0 0,0" /></g><g
           transform="translate(486.9196,530.3635)"
           id="g84"><path
             id="path86"
             style="fill:#51352d;fill-opacity:1;fill-rule:nonzero;stroke:none"
             d="m 0,0 c 0,0 86.254,80.133 101.959,77.113 15.704,-3.02 3.624,-98.455 -3.02,-115.971 -6.644,-17.517 3.186,-61.126 -33.138,-68.918 C 29.477,-115.568 -3.064,-20.2 0,0" /></g><g
           transform="translate(504.7977,498.3091)"
           id="g88"><path
             id="path90"
             style="fill:#402923;fill-opacity:1;fill-rule:nonzero;stroke:none"
             d="m 0,0 c 0.137,1.715 10.391,22.189 24.887,37.894 14.497,15.704 33.825,21.744 39.261,21.744 5.436,0 8.003,-27.625 -5.285,-61.006 -13.288,-33.38 -38.959,-47.113 -38.959,-47.113 0,0 -22.442,16.628 -19.904,48.481" /></g><g
           transform="translate(494.0477,317.5482)"
           id="g92"><path
             id="path94"
             style="fill:#c18d59;fill-opacity:1;fill-rule:nonzero;stroke:none"
             d="m 0,0 c 17.517,3.02 18.725,27.785 19.933,39.865 0.699,6.99 7.663,8.917 13.294,7.551 0.75,-9.632 2.746,-21.766 2.41,-42.584 -0.604,-37.449 -30.805,-61.006 -49.831,-90.905 -19.027,-29.898 -48.267,-67.952 -79.854,-67.046 V 34.429 l 21.524,8.623 C -72.524,43.052 -17.516,-3.02 0,0" /></g><g
           transform="translate(504.5975,274.663)"
           id="g96"><path
             id="path98"
             style="fill:#1d2024;fill-opacity:1;fill-rule:nonzero;stroke:none"
             d="m 0,0 c 6.926,16.912 0.323,21.141 10.591,37.449 10.267,16.307 13.87,33.475 13.871,33.478 0.46,-6.378 0.775,-13.926 0.625,-23.21 C 24.61,18.127 5.657,-2.791 -11.664,-25.016 -8.038,-17.885 -3.504,-8.558 0,0" /></g><g
           transform="translate(400.0005,230.5696)"
           id="g100"><path
             id="path102"
             style="fill:#968678;fill-opacity:1;fill-rule:nonzero;stroke:none"
             d="m 0,0 v 0.085 c 0,0 -50.106,0.353 -63.168,2.441 0,0 15.317,-20.562 28.988,-25.998 13.663,-5.433 34.155,-4.531 34.179,-4.53 v -0.085 c 0,0 20.509,-0.906 34.18,4.53 C 47.85,-18.121 63.167,2.441 63.167,2.441 50.108,0.353 0.024,0 0,0" /></g><g
           transform="translate(472.605,293.5057)"
           id="g104"><path
             id="path106"
             style="fill:#7b6d5f;fill-opacity:1;fill-rule:nonzero;stroke:none"
             d="m 0,0 c -9.06,21.712 -36.291,40.804 -36.291,40.804 l -13.224,-24.916 -24.315,-40.24 -21.865,40.325 -13.224,24.916 c 0,0 -27.231,-19.092 -36.291,-40.804 -9.06,-21.712 -3.074,-45.947 -3.074,-45.947 0,0 9.869,-14.422 24.819,-19.103 14.896,-4.665 50.596,7.91 50.849,7.999 l 0.01,-0.081 c 0,0 35.912,-12.684 50.861,-8.003 14.95,4.681 24.819,19.104 24.819,19.104 0,0 5.986,24.234 -3.074,45.946" /></g><g
           transform="translate(436.314,334.3097)"
           id="g108"><path
             id="path110"
             style="fill:#1d2024;fill-opacity:1;fill-rule:nonzero;stroke:none"
             d="m 0,0 c 0,0 -15.352,29.899 -22.148,36.241 -6.789,6.337 -14.153,5.438 -14.165,5.436 v 0.085 c 0,0 -7.372,0.906 -14.167,-5.436 -6.795,-6.342 -22.148,-36.241 -22.148,-36.241 0,0 -5.449,-8.607 -1.862,-21.745 3.586,-13.133 38.151,1.802 38.175,1.812 v -0.085 c 0,0 34.59,-14.95 38.177,-1.812 C 5.449,-8.607 0,0 0,0" /></g><g
           transform="translate(438.176,312.5651)"
           id="g112"><path
             id="path114"
             style="fill:#31353a;fill-opacity:1;fill-rule:nonzero;stroke:none"
             d="m 0,0 c -13.131,12.678 -38.152,12.234 -38.175,12.233 v 0.085 c 0,0 -25.04,0.451 -38.177,-12.233 -13.137,-12.684 -2.718,-37.356 7.701,-47.671 10.419,-10.314 23.802,-11.221 30.474,-11.221 v -0.085 c 6.672,0 20.056,0.906 30.476,11.221 C 2.718,-37.356 13.137,-12.684 0,0" /></g><g
           transform="translate(423.09,299.9521)"
           id="g116"><path
             id="path118"
             style="fill:#1d2024;fill-opacity:1;fill-rule:nonzero;stroke:none"
             d="m 0,0 c -12.67,4.451 -22.061,4.463 -22.061,4.463 -0.305,0.023 -0.654,0.078 -1.028,0.155 v 0.085 c -0.376,-0.077 -0.725,-0.132 -1.03,-0.155 0,0 -9.391,-0.013 -22.061,-4.463 -9.803,-3.443 -17.133,-9.81 -19.957,-12.523 2.318,-8.896 7.442,-17.456 12.572,-22.535 10.419,-10.314 23.802,-11.221 30.474,-11.221 v -0.085 c 6.672,0 20.056,0.906 30.476,11.221 5.13,5.079 10.254,13.64 12.572,22.535 C 17.133,-9.81 9.803,-3.443 0,0" /></g><g
           transform="translate(475.9272,251.1063)"
           id="g120"><path
             id="path122"
             style="fill:#000000;fill-opacity:1;fill-rule:nonzero;stroke:none"
             d="m 0,0 c 0,0 -8.154,-11.174 -21.141,-15.705 -12.986,-4.53 -43.432,2.718 -54.786,3.322 v 0.085 c -11.353,-0.603 -41.8,-7.852 -54.787,-3.322 -12.986,4.531 -21.14,15.705 -21.14,15.705 -1.51,-4.832 7.852,-19.933 25.066,-22.651 17.209,-2.717 50.836,-0.002 50.86,0 v -0.085 c 0,0 33.647,-2.718 50.861,0 C -7.852,-19.933 1.51,-4.832 0,0" /></g><g
           transform="translate(453.5121,392.4464)"
           id="g124"><path
             id="path126"
             style="fill:#000000;fill-opacity:1;fill-rule:nonzero;stroke:none"
             d="M 0,0 C 0,0 1.812,18.258 21.141,20.303 40.469,22.349 46.509,3.646 46.509,3.646 c 0,0 -1.208,-15.939 -12.08,-17.796 C 23.557,-16.006 0,0 0,0" /></g><g
           transform="translate(453.5121,392.4464)"
           id="g128"><path
             id="path130"
             style="fill:#1d2024;fill-opacity:1;fill-rule:nonzero;stroke:none"
             d="m 0,0 c 0,0 6.342,12.986 20.235,14.496 13.892,1.51 22.046,-12.08 22.046,-12.08 0,0 -1.51,-21.443 -19.328,-20.537 C 5.134,-17.215 0,0 0,0" /></g><g
           id="g132"><g
             id="g134" /><g
             id="g146"><g
               style="opacity:0.35000604"
               id="g144"
               clip-path="url(#clipPath138)"><g
                 id="g142"
                 transform="translate(455.5603,395.7098)"><path
                   id="path140"
                   style="fill:#ffffff;fill-opacity:1;fill-rule:nonzero;stroke:none"
                   d="m 0,0 c 0.194,-0.629 5.453,-17.173 22.934,-18.062 6.97,-0.354 11.437,2.715 14.302,6.579 -2.608,-5.238 -7.438,-10.353 -16.332,-9.901 -17.818,0.906 -22.952,18.121 -22.952,18.121 0,0 0.677,1.37 2.048,3.263" /></g></g></g></g><g
           transform="translate(487.9411,390.679)"
           id="g148"><path
             id="path150"
             style="fill:#000000;fill-opacity:1;fill-rule:nonzero;stroke:none"
             d="m 0,0 c 0,-6.839 -5.544,-12.382 -12.382,-12.382 -6.839,0 -12.383,5.543 -12.383,12.382 0,6.839 5.544,12.382 12.383,12.382 C -5.544,12.382 0,6.839 0,0" /></g><g
           transform="translate(469.1719,396.0928)"
           id="g152"><path
             id="path154"
             style="fill:#ffffff;fill-opacity:1;fill-rule:nonzero;stroke:none"
             d="m 0,0 c 0,-2.99 -2.424,-5.414 -5.414,-5.414 -2.99,0 -5.414,2.424 -5.414,5.414 0,2.99 2.424,5.414 5.414,5.414 C -2.424,5.414 0,2.99 0,0" /></g><g
           transform="translate(440.2237,412.7497)"
           id="g156"><path
             id="path158"
             style="fill:#c18d59;fill-opacity:1;fill-rule:nonzero;stroke:none"
             d="m 0,0 c 0,0 9.664,13.522 34.429,23.186 0,0 -16.308,26.577 -34.429,20.537 C -18.121,37.682 -18.97,7.648 0,0" /></g><g
           transform="translate(380.5485,293.4724)"
           id="g160"><path
             id="path162"
             style="fill:#000000;fill-opacity:1;fill-rule:nonzero;stroke:none"
             d="m 0,0 c 0,0 -10.268,-1.208 -13.288,-5.738 -3.02,-4.53 -1.51,-11.175 6.644,-12.383 8.154,-1.208 11.665,3.01 13.59,9.061 C 9.06,-2.416 4.108,0.792 0,0" /></g><g
           transform="translate(419.4515,293.3875)"
           id="g164"><path
             id="path166"
             style="fill:#000000;fill-opacity:1;fill-rule:nonzero;stroke:none"
             d="m 0,0 c 0,0 10.268,-1.208 13.288,-5.738 3.02,-4.53 1.51,-11.175 -6.644,-12.383 -8.154,-1.208 -11.665,3.01 -13.59,9.061 C -9.06,-2.416 -4.108,0.792 0,0" /></g><g
           id="g168"><g
             id="g170" /><g
             id="g182"><g
               style="opacity:0.44999701"
               id="g180"
               clip-path="url(#clipPath174)"><g
                 id="g178"
                 transform="translate(387.9996,304.3448)"><path
                   id="path176"
                   style="fill:#ffffff;fill-opacity:1;fill-rule:nonzero;stroke:none"
                   d="m 0,0 c 0,0 -0.505,-3.926 -4.129,-3.926 -3.624,0 -17.517,-5.134 -19.631,-4.832 C -25.874,-8.456 -22.75,1.51 0,0" /></g></g></g></g><g
           id="g184"><g
             id="g186" /><g
             id="g198"><g
               style="opacity:0.44999701"
               id="g196"
               clip-path="url(#clipPath190)"><g
                 id="g194"
                 transform="translate(412.0004,304.2598)"><path
                   id="path192"
                   style="fill:#ffffff;fill-opacity:1;fill-rule:nonzero;stroke:none"
                   d="m 0,0 c 0,0 0.505,-3.926 4.129,-3.926 3.624,0 17.517,-5.134 19.631,-4.832 C 25.874,-8.456 22.75,1.51 0,0" /></g></g></g></g></g></g></g></svg>